<?xml version="1.0" standalone="no"?>
<!DOCTYPE svg PUBLIC "-//W3C//DTD SVG 20010904//EN"
 "http://www.w3.org/TR/2001/REC-SVG-20010904/DTD/svg10.dtd">
<svg version="1.0" xmlns="http://www.w3.org/2000/svg"
 width="511.000000pt" height="511.000000pt" viewBox="0 0 511.000000 511.000000"
 preserveAspectRatio="xMidYMid meet">
<metadata>
Created by potrace 1.14, written by Peter Selinger 2001-2017
</metadata>
<g transform="translate(0.000000,511.000000) scale(0.100000,-0.100000)"
fill="#000000" stroke="none">
<path d="M989 5106 c-2 -2 -44 -7 -94 -10 -173 -13 -331 -57 -430 -119 -241
-151 -386 -359 -435 -622 -23 -127 -25 -286 -25 -1805 0 -1393 4 -1715 20
-1762 2 -7 6 -26 9 -43 25 -169 113 -334 246 -465 76 -75 87 -84 155 -127 106
-68 175 -93 347 -128 79 -16 407 -20 1768 -20 1395 0 1648 3 1780 20 289 39
552 237 686 518 38 82 69 210 81 342 10 114 11 3196 0 3328 -9 112 -27 209
-58 299 -21 62 -66 150 -81 156 -4 2 -8 8 -8 13 0 15 -58 87 -125 155 -138
139 -319 227 -512 250 -32 3 -67 9 -78 12 -21 6 -3239 14 -3246 8z"/>
</g>
</svg>
